<svg xmlns="http://www.w3.org/2000/svg"  viewBox="0 0 100 100" width="100px" height="100px"><path fill="#e85654" d="M73.187,59.404C88.333,56.339,89.75,48.957,89.75,45c0-5.401-3.823-9.126-8.382-10.809	c0,0,0.241-1.787,0.132-3.191c-0.342-4.405-15.235-10-33.52-10S14.5,26.582,14.5,31c0,0,0,0,0,0.001	c0,13.08,3.631,24.968,14.345,34.528C21.18,66.814,18,68.792,18,71.013C18,74.887,30.741,78,47.981,78	C65.222,78,78,74.887,78,71.013c0-2.22-3.188-4.198-10.86-5.483C69.421,63.499,71.48,61.992,73.187,59.404z"/><path fill="#e3e2e3" d="M73.176,59.406c0.004-0.001,0.008-0.001,0.011-0.002C88.922,56.392,89.75,49,89.75,45	c0-5.424-3.809-9.651-8.871-11.027c0,0-0.617,5.346-1.249,7.555c0,0,2.908,0.877,3.264,3.675c0.228,1.793-0.709,3.921-3.985,5.814	c-1.039,0.6-2.396,1.072-2.396,1.072C71.325,48.83,60.468,46,47.979,46c-12.483,0-24.426,3.266-29.176,6.26	c2.149,5.186,5.062,8.825,10.042,13.269C21.18,66.814,18,68.792,18,71.013C18,74.887,30.741,78,47.981,78	C65.222,78,78,74.887,78,71.013c0-2.22-3.188-4.198-10.86-5.483C69.459,63.465,71.453,62.045,73.176,59.406z"/><path fill="#444445" d="M48,43c-15.01,0.002-26.267,2.118-31.307,3.818c0.598,1.935,1.273,3.945,2.109,5.442	C25.88,50.246,32.995,49.001,48,49c15.005,0.001,21.436,1.074,28.513,3.088c0.557-1.541,1.257-3.67,1.856-5.605	C73.328,44.783,63.01,43.002,48,43z"/><circle cx="47.979" cy="46.021" r="11.021" fill="#444445"/><circle cx="47.979" cy="46.021" r="5.5" fill="#e3e2e3"/><path fill="#1f212b" d="M76.513,52.588c-0.045,0-0.091-0.006-0.137-0.02c-4.968-1.413-9.908-2.438-17.877-2.843	c-0.275-0.014-0.488-0.249-0.474-0.524c0.015-0.276,0.225-0.496,0.524-0.474c7.825,0.397,12.77,1.387,17.655,2.754	c0.701-1.914,3.509-9.941,4.176-17.411c0.024-0.276,0.268-0.47,0.543-0.453c0.274,0.024,0.478,0.268,0.453,0.543	c-0.772,8.653-4.361,18.015-4.397,18.108C76.903,52.465,76.715,52.588,76.513,52.588z"/><path fill="#1f212b" d="M18.803,52.76c-0.218,0-0.418-0.144-0.48-0.363c-0.076-0.266,0.078-0.542,0.344-0.617	c6.05-1.722,11.482-2.594,18.751-3.012c0.317-0.019,0.512,0.195,0.527,0.471s-0.194,0.512-0.471,0.527	c-7.189,0.414-12.56,1.275-18.534,2.975C18.894,52.754,18.848,52.76,18.803,52.76z"/><path fill="#1f212b" d="M16.958,47.201c-0.209,0-0.403-0.132-0.474-0.34c-0.089-0.262,0.052-0.546,0.313-0.634	c4.594-1.55,12.239-2.81,20.451-3.37c0.275-0.023,0.514,0.188,0.533,0.465c0.019,0.275-0.189,0.515-0.465,0.533	c-8.131,0.555-15.683,1.795-20.199,3.319C17.064,47.192,17.011,47.201,16.958,47.201z"/><path fill="#1f212b" d="M78.368,46.983c-0.049,0-0.099-0.007-0.148-0.022c-2.203-0.685-8.522-2.357-19.581-3.108	c-0.275-0.019-0.483-0.258-0.465-0.533s0.258-0.482,0.533-0.465c11.163,0.759,17.572,2.456,19.81,3.151	c0.264,0.082,0.411,0.362,0.329,0.626C78.779,46.846,78.582,46.983,78.368,46.983z"/><path fill="#1f212b" d="M47.979,57.541c-6.353,0-11.521-5.168-11.521-11.521S41.626,34.5,47.979,34.5	S59.5,39.668,59.5,46.021S54.331,57.541,47.979,57.541z M47.979,35.5c-5.801,0-10.521,4.72-10.521,10.521s4.72,10.521,10.521,10.521	c5.802,0,10.521-4.72,10.521-10.521S53.78,35.5,47.979,35.5z"/><path fill="#1f212b" d="M47.979,52.521c-1.306,0-2.565-0.386-3.644-1.116c-0.229-0.155-0.288-0.466-0.134-0.694	c0.155-0.229,0.467-0.286,0.694-0.134c0.912,0.618,1.978,0.944,3.083,0.944c3.032,0,5.5-2.468,5.5-5.5s-2.468-5.5-5.5-5.5	s-5.5,2.468-5.5,5.5c0,0.889,0.205,1.736,0.61,2.521c0.127,0.245,0.03,0.547-0.215,0.674C42.632,49.341,42.327,49.246,42.2,49	c-0.479-0.927-0.722-1.93-0.722-2.979c0-3.584,2.916-6.5,6.5-6.5s6.5,2.916,6.5,6.5S51.563,52.521,47.979,52.521z"/><path fill="#1f212b" d="M48,79c-14.931,0-31-2.499-31-7.986c0-2.771,3.181-4.775,9.709-6.106	C17.824,56.277,13.5,45.163,13.5,31.001C13.5,25.347,30.257,20,47.98,20c17.307,0,34.081,5.309,34.517,10.923	c0.07,0.902,0.009,1.93-0.053,2.617c5.218,2.187,8.306,6.422,8.306,11.46c0,7.785-5.706,12.932-16.963,15.302	c-1.325,1.906-2.834,3.246-4.429,4.623C75.841,66.256,79,68.256,79,71.014C79,76.501,62.931,79,48,79z M47.98,22	c-19.086,0-32.48,5.839-32.48,9c0,14.319,4.583,25.37,14.011,33.783c0.287,0.256,0.401,0.654,0.295,1.023	c-0.107,0.37-0.416,0.646-0.796,0.709C19.722,68.073,19,70.353,19,71.014C19,73.46,29.327,77,48,77s29-3.54,29-5.986	c0-0.661-0.723-2.938-10.024-4.497c-0.38-0.063-0.689-0.339-0.796-0.709s0.009-0.768,0.296-1.023c0.449-0.4,0.89-0.78,1.32-1.152	c1.749-1.509,3.26-2.812,4.557-4.778c0.146-0.222,0.376-0.377,0.637-0.43C83.447,56.309,88.75,51.792,88.75,45	c0-4.396-2.889-8.086-7.728-9.87c-0.439-0.162-0.708-0.607-0.646-1.072c0.002-0.017,0.226-1.702,0.126-2.979	C80.261,27.961,67.407,22,47.98,22z"/><path fill="#1f212b" d="M76.513,52.588c-0.207,0-0.4-0.129-0.473-0.336c-0.09-0.261,0.048-0.546,0.309-0.637	c0.013-0.004,1.326-0.464,2.311-1.031c2.685-1.552,3.873-3.221,3.634-5.104c-0.094-0.737-0.55-1.418-1.355-2.024	c-0.221-0.166-0.265-0.479-0.099-0.7c0.166-0.223,0.481-0.265,0.7-0.099c1.029,0.774,1.617,1.682,1.746,2.697	c0.295,2.327-1.055,4.321-4.126,6.096c-1.068,0.616-2.425,1.091-2.482,1.111C76.622,52.579,76.567,52.588,76.513,52.588z"/></svg>